REM DIRINDEX 1\2,1\3,1\4,1\5
REM DIRNAME cjc004,folder01,folder02,folder03,folder04
TITLE ""
FILE "1Q_t_0959-0968.mp3" MP3
  TRACK 01 AUDIO
    TITLE "3:cjc004_3781"
    INDEX 01 00:00:00
  TRACK 02 AUDIO
    TITLE "0:"
    INDEX 01 00:01:03
  TRACK 03 AUDIO
    TITLE "4:cjc004_3782"
    INDEX 01 00:01:30
  TRACK 04 AUDIO
    TITLE "0:"
    INDEX 01 00:03:12
  TRACK 05 AUDIO
    TITLE "5:cjc004_3783"
    INDEX 01 00:03:37
  TRACK 06 AUDIO
    TITLE "0:"
    INDEX 01 00:07:07
  TRACK 07 AUDIO
    TITLE "3:cjc004_3784"
    INDEX 01 00:07:62
  TRACK 08 AUDIO
    TITLE "0:"
    INDEX 01 00:09:00
  TRACK 09 AUDIO
    TITLE "4:cjc004_3785"
    INDEX 01 00:09:26
  TRACK 10 AUDIO
    TITLE "0:"
    INDEX 01 00:10:27
  TRACK 11 AUDIO
    TITLE "5:cjc004_3786"
    INDEX 01 00:10:55
  TRACK 12 AUDIO
    TITLE "0:"
    INDEX 01 00:15:54
  TRACK 13 AUDIO
    TITLE "3:cjc004_3787"
    INDEX 01 00:16:30
  TRACK 14 AUDIO
    TITLE "0:"
    INDEX 01 00:17:43
  TRACK 15 AUDIO
    TITLE "4:cjc004_3788"
    INDEX 01 00:17:74
  TRACK 16 AUDIO
    TITLE "0:"
    INDEX 01 00:19:07
  TRACK 17 AUDIO
    TITLE "5:cjc004_3789"
    INDEX 01 00:19:26
  TRACK 18 AUDIO
    TITLE "0:"
    INDEX 01 00:23:53
  TRACK 19 AUDIO
    TITLE "3:cjc004_3790"
    INDEX 01 00:24:27
  TRACK 20 AUDIO
    TITLE "0:"
    INDEX 01 00:25:39
  TRACK 21 AUDIO
    TITLE "4:cjc004_3791"
    INDEX 01 00:25:66
  TRACK 22 AUDIO
    TITLE "0:"
    INDEX 01 00:27:12
  TRACK 23 AUDIO
    TITLE "5:cjc004_3792"
    INDEX 01 00:27:41
  TRACK 24 AUDIO
    TITLE "0:"
    INDEX 01 00:31:55
  TRACK 25 AUDIO
    TITLE "3:cjc004_3793"
    INDEX 01 00:32:33
  TRACK 26 AUDIO
    TITLE "0:"
    INDEX 01 00:33:52
  TRACK 27 AUDIO
    TITLE "4:cjc004_3794"
    INDEX 01 00:34:04
  TRACK 28 AUDIO
    TITLE "0:"
    INDEX 01 00:35:29
  TRACK 29 AUDIO
    TITLE "5:cjc004_3795"
    INDEX 01 00:35:47
  TRACK 30 AUDIO
    TITLE "0:"
    INDEX 01 00:40:52
  TRACK 31 AUDIO
    TITLE "3:cjc004_3796"
    INDEX 01 00:41:32
  TRACK 32 AUDIO
    TITLE "0:"
    INDEX 01 00:42:47
  TRACK 33 AUDIO
    TITLE "4:cjc004_3797"
    INDEX 01 00:43:03
  TRACK 34 AUDIO
    TITLE "0:"
    INDEX 01 00:44:28
  TRACK 35 AUDIO
    TITLE "5:cjc004_3798"
    INDEX 01 00:44:52
  TRACK 36 AUDIO
    TITLE "0:"
    INDEX 01 00:50:31
  TRACK 37 AUDIO
    TITLE "3:cjc004_3799"
    INDEX 01 00:51:03
  TRACK 38 AUDIO
    TITLE "0:"
    INDEX 01 00:52:00
  TRACK 39 AUDIO
    TITLE "4:cjc004_3800"
    INDEX 01 00:52:26
  TRACK 40 AUDIO
    TITLE "0:"
    INDEX 01 00:53:37
  TRACK 41 AUDIO
    TITLE "5:cjc004_3801"
    INDEX 01 00:53:62
  TRACK 42 AUDIO
    TITLE "0:"
    INDEX 01 00:57:27
  TRACK 43 AUDIO
    TITLE "3:cjc004_3802"
    INDEX 01 00:58:05
  TRACK 44 AUDIO
    TITLE "0:"
    INDEX 01 00:59:38
  TRACK 45 AUDIO
    TITLE "4:cjc004_3803"
    INDEX 01 00:59:63
  TRACK 46 AUDIO
    TITLE "0:"
    INDEX 01 01:00:59
  TRACK 47 AUDIO
    TITLE "5:cjc004_3804"
    INDEX 01 01:01:09
  TRACK 48 AUDIO
    TITLE "0:"
    INDEX 01 01:05:52
  TRACK 49 AUDIO
    TITLE "3:cjc004_3805"
    INDEX 01 01:06:30
  TRACK 50 AUDIO
    TITLE "0:"
    INDEX 01 01:07:47
  TRACK 51 AUDIO
    TITLE "4:cjc004_3806"
    INDEX 01 01:07:74
  TRACK 52 AUDIO
    TITLE "0:"
    INDEX 01 01:09:40
  TRACK 53 AUDIO
    TITLE "5:cjc004_3807"
    INDEX 01 01:09:61
  TRACK 54 AUDIO
    TITLE "0:"
    INDEX 01 01:14:35
  TRACK 55 AUDIO
    TITLE "3:cjc004_3808"
    INDEX 01 01:15:13
  TRACK 56 AUDIO
    TITLE "0:"
    INDEX 01 01:16:28
  TRACK 57 AUDIO
    TITLE "4:cjc004_3809"
    INDEX 01 01:16:56
  TRACK 58 AUDIO
    TITLE "0:"
    INDEX 01 01:17:59
  TRACK 59 AUDIO
    TITLE "5:cjc004_3810"
    INDEX 01 01:18:09
  TRACK 60 AUDIO
    TITLE "0:"
    INDEX 01 01:22:62
